<svg width="331" height="315" viewBox="0 0 331 315" fill="none" xmlns="http://www.w3.org/2000/svg">
<path d="M261.142 151.161C261.369 157.914 210.257 194.302 158.651 194.739C106.225 195.183 53.3176 159.593 53.3176 151.205V182.817C53.3176 191.205 88.3364 221.398 158.651 221.398C225.486 221.398 261.347 189.57 261.142 182.817V151.161Z" fill="#324446"/>
<path d="M261.087 150.175C259.369 129.538 213.536 113.007 157.244 113.007C100.951 113.007 55.0683 129.555 53.3952 150.203C53.362 150.591 53.3398 150.984 53.3398 151.372C53.3398 172.391 99.1119 194.457 155.859 194.728H158.673H159.427C215.775 194.302 261.098 172.313 261.142 151.411V151.35C261.142 150.951 261.12 150.563 261.087 150.175Z" fill="#4E6566"/>
<path d="M255.724 63.3066L157.244 117.112L58.7636 63.3066L58.9519 149.732C58.9519 157.665 89.6328 187.127 158.596 187.127C232.749 187.127 255.746 156.103 255.547 149.732L255.724 63.3066Z" fill="#324446"/>
<g style="mix-blend-mode:multiply" opacity="0.5">
<path d="M58.8909 131.112C58.8909 120.22 75.561 119.511 98.3307 129.727C136.352 146.79 179.958 187.066 211.348 180.54C240.877 172.042 253.126 157.638 255.225 151.505C255.37 150.164 255.486 149.039 255.563 148.231L255.652 108.674C254.217 108.63 215.547 107.461 177.216 106.192L157.271 117.09L134.629 104.724C114.768 103.999 100.597 103.389 100.835 103.134C101.666 102.303 61.2233 95.6553 61.2233 95.6553L58.8466 97.068L58.8909 131.112Z" fill="#0B2025"/>
</g>
<path opacity="0.7" d="M255.669 138.685V106.924L224.09 120.591L225.752 177.1L253.818 153.089L255.669 138.685Z" fill="#18AEC8"/>
<path d="M264.3 62.1433L157.172 13.9558L50.8966 62.1433L0 72.1099V82.6084H0.00554548L157.172 152.408L315.745 82.6084H315.751V72.1099L264.3 62.1433Z" fill="#324446"/>
<path d="M157.172 0.770508L0 72.11L157.172 141.909L315.751 72.11L157.172 0.770508Z" fill="#4E6566"/>
<path opacity="0.4" d="M159.46 63.0298C159.46 63.0298 87.9929 84.2649 77.1566 103.406C76.0485 105.411 75.2674 108.83 74.7854 112.824L81.018 116.414C81.018 116.414 81.09 107.965 82.126 106.115C92.979 87.1956 165.654 65.3234 165.654 65.3234L159.46 63.0298Z" fill="#0B2025"/>
<g style="mix-blend-mode:multiply" opacity="0.5">
<path d="M171.681 64.0546C171.681 67.7443 165.426 70.7359 157.72 70.7359C150.014 70.7359 143.759 67.7443 143.759 64.0546C143.759 60.3649 150.008 57.4065 157.72 57.4065C165.432 57.4065 171.681 60.3704 171.681 64.0546Z" fill="#0B2025"/>
</g>
<path d="M72.9904 139.383C72.719 133.533 71.7882 108.298 75.7217 101.367C85.7381 83.6885 150.263 63.6667 156.839 61.6667L159.288 63.5227C147.166 67.168 88.7796 85.5334 78.7853 102.996C74.8519 109.888 76.0984 133.555 76.4364 138.862L72.9904 139.383Z" fill="#FCC90D"/>
<path d="M147.743 67.1683L151.892 65.9827C151.892 65.9827 149.975 63.9661 149.676 63.8165C149.377 63.6669 147.898 64.3705 147.898 64.3705L147.094 64.7085C147.815 64.6088 148.673 66.7971 147.743 67.1683Z" fill="#DB8616"/>
<path d="M170.717 60.6697C170.717 64.1046 164.895 66.8857 157.72 66.8857C150.546 66.8857 144.723 64.1157 144.723 60.6697C144.723 57.2238 150.54 54.4482 157.72 54.4482C164.9 54.4482 170.717 57.2349 170.717 60.6697Z" fill="#324446"/>
<path d="M77.0347 148.657H71.5999V166.147H77.0347V148.657Z" fill="url(#paint0_linear_41_139)"/>
<path d="M92.9901 210.008C92.9901 207.698 90.9403 189.432 87.3891 173.355C84.619 160.823 81.5443 149.388 73.9212 149.388C56.5143 149.388 54.4921 205.249 54.8523 210.008C55.0572 212.778 56.5143 215.686 60.5087 217.941C61.7959 218.572 63.1509 219.053 64.5474 219.376C67.6224 220.07 70.7693 220.393 73.9212 220.34C75.5649 220.394 77.2104 220.313 78.8408 220.096C80.7964 219.753 81.716 219.664 82.7853 219.432C90.702 217.709 92.9901 213.155 92.9901 210.008Z" fill="url(#paint1_linear_41_139)"/>
<path d="M75.7162 149.621C75.1853 149.485 74.6408 149.409 74.0929 149.394C73.2232 149.948 72.0874 150.641 70.6304 151.61C59.1348 159.278 56.0212 198.861 55.9492 213.692C57.047 215.501 58.6229 216.971 60.5032 217.941C61.7904 218.572 63.1454 219.053 64.5419 219.376C65.732 219.662 66.9382 219.877 68.154 220.019C68.4033 194.85 71.539 155.876 73.4004 151.876C73.4004 151.887 74.7578 150.657 75.7162 149.621Z" fill="#FFCD2E"/>
<path d="M89.4223 216.49C92.0649 214.457 92.9901 211.986 92.9901 210.008C92.9901 205.897 91.3281 149.388 73.9212 149.388C71.5168 149.388 69.4115 150.458 67.5612 152.302C66.5584 153.737 75.1898 154.297 77.8324 158.258C84.1149 167.676 89.4666 185.404 89.4666 216.063C89.46 216.206 89.4452 216.349 89.4223 216.49Z" fill="#D8810E"/>
<g style="mix-blend-mode:multiply" opacity="0.2">
<path d="M274.876 237.852C262.261 242.212 251.536 246.456 240.927 251.076C235.27 237.038 198.794 226.207 154.64 226.207C106.558 226.207 67.5944 239.049 67.5944 254.888C67.5944 270.5 105.483 283.203 152.623 283.558C138.108 285.918 127.693 290.633 127.693 295.929C127.693 302.416 135.554 310.433 146.252 313.103C160.657 316.704 167.305 313.934 171.46 312.549C195.836 304.422 301.43 259.597 308.117 255.763C315.817 251.353 285.031 234.345 274.876 237.852Z" fill="#0B2025"/>
</g>
<path style="mix-blend-mode:multiply" opacity="0.2" d="M274.505 239.143C261.58 242.467 251.536 246.456 240.927 251.076C235.27 237.038 198.794 226.207 154.64 226.207C106.558 226.207 67.5944 239.049 67.5944 254.888C67.5944 270.5 105.483 283.203 152.623 283.558C138.108 285.918 127.693 290.633 127.693 295.929C127.693 302.416 135.554 310.433 146.252 313.103C160.657 316.704 167.305 313.934 171.46 312.549C195.836 304.422 301.43 259.597 308.117 255.763C315.817 251.353 284.339 236.617 274.505 239.143Z" fill="url(#paint2_radial_41_139)"/>
<path d="M235.27 202.13C247.458 218.534 249.763 237.459 240.428 244.384C231.093 251.309 213.653 243.631 201.465 227.21C189.277 210.789 186.972 191.875 196.307 184.95C205.642 178.025 223.088 185.72 235.27 202.13Z" fill="#AA160B"/>
<path d="M284.383 111.932L284.438 111.999C292.748 105.129 308.632 110.336 320.089 123.771C330.864 136.386 333.883 151.765 327.479 159.46L165.415 306.898L122.081 259.11L284.383 111.932Z" fill="#CCCACB"/>
<path d="M129.25 295.574C124.181 289.641 119.438 283.729 117.976 277.663C117.422 275.309 122.812 272.516 121.771 270.539C119.915 267.021 120.109 261.12 123.316 258.4C131.56 251.353 147.587 256.572 159.111 270.034C170.634 283.497 173.293 300.167 165.05 307.208C156.806 314.25 140.773 309.059 129.25 295.574Z" fill="#B5C0C9"/>
<g style="mix-blend-mode:multiply" opacity="0.4">
<path d="M238.129 168.795L238.168 168.84C243.752 164.214 254.478 167.732 262.195 176.779C269.458 185.277 271.497 195.642 267.181 200.828L267.336 201.005L157.953 300.173C157.953 300.173 163.648 290.012 152.784 276.998C142.923 265.187 132.369 268.744 132.369 268.744L238.129 168.795Z" fill="#90A3AF"/>
</g>
<g style="mix-blend-mode:multiply" opacity="0.4">
<path d="M150.38 275.336C148.773 273.458 138.984 284.511 137.604 282.677C132.325 275.63 130.291 272.561 134.696 268.794C140.236 264.046 145.017 267.935 152.784 277.021C160.551 286.106 163.26 295.674 157.704 300.422C155.31 302.466 159.958 298.494 159.831 294.051C159.659 288.173 154.801 280.511 150.38 275.336Z" fill="#90A3AF"/>
</g>
<path d="M159.111 270.057C147.587 256.572 131.56 251.353 123.316 258.422C122.965 258.726 122.632 259.049 122.319 259.392L122.081 259.132L284.405 111.954L284.46 112.02C292.771 105.151 308.654 110.358 320.111 123.793C330.886 136.408 333.906 151.787 327.501 159.482L166.662 307.84L165.415 306.892C173.199 299.668 170.457 283.314 159.111 270.057Z" fill="#F8FFFF"/>
<path opacity="0.5" d="M254.849 208.523C254.81 208.379 264.023 213.509 263.984 213.398L330.748 149.948C331.302 138.314 324.443 128.824 320.083 123.721C319.235 122.73 318.36 121.788 317.468 120.885L251.364 179.953L252.3 176.252L246.694 176.806C246.622 175.366 246.589 174.646 246.522 173.205L241.17 174.54L239.952 171.316L235.076 173.305C234.229 172.197 233.808 171.671 232.96 170.579L228.7 173.089L225.841 170.939L222.323 173.831L218.899 172.308L216.185 175.454L212.356 174.574L210.489 177.848L206.412 177.621L205.404 180.9L201.238 181.305C201.177 182.579 201.143 183.216 201.088 184.49L196.961 185.504C197.232 186.701 197.376 187.294 197.636 188.501C196.052 189.149 195.26 189.471 193.686 190.102C194.274 191.21 194.567 191.726 195.193 192.767L191.542 194.917C192.434 195.842 192.889 196.296 193.836 197.16C192.523 198.241 191.858 198.795 190.573 199.847C191.547 200.476 192.555 201.051 193.592 201.57L190.85 204.723C192.052 205.178 193.285 205.549 194.54 205.831C193.709 207.232 193.288 207.941 192.473 209.326C194.135 209.515 195.027 209.565 196.805 209.648C196.251 211.188 195.98 211.958 195.448 213.476C197.304 213.36 198.257 213.271 200.174 213.094C199.952 214.717 199.836 215.537 199.62 217.138C201.548 216.739 202.528 216.523 204.495 216.08C204.617 217.742 204.667 218.601 204.844 220.213C205.803 219.875 206.506 219.614 207.254 219.348L156.075 265.087L163.161 271.353L170.363 297.585L250.694 224.456C251.336 224.456 248.339 215.138 249.176 215.094C249.176 214.368 249.22 213.742 249.242 213.16L254.295 208.523H254.849Z" fill="#B3C0C6"/>
<g style="mix-blend-mode:darken" opacity="0.4">
<path d="M327.479 159.46C329.551 156.973 330.631 153.676 330.803 149.931H330.753L266.25 211.133L242.107 232.246L172.856 295.403L166.003 307.358L166.673 307.868L327.479 159.46Z" fill="#5AC7D3"/>
</g>
<path d="M161.31 311.956C163.663 311.156 165.807 309.84 167.585 308.104C169.364 306.368 170.731 304.256 171.587 301.923C174.856 293.403 172.141 282.029 164.302 271.514C149.848 252.079 135.266 249.991 126.447 254.506C123.233 256.168 121.139 258.567 120.22 261.675C117.959 269.342 123.66 279.214 126.724 284.522L127.167 285.292C131.084 292.123 146.768 305.58 155.587 302.012C158.457 300.854 160.374 299.004 161.288 296.516C163.294 291.059 159.753 284.328 157.848 280.688L157.571 280.134C154.983 275.148 142.308 262.611 135.1 266.156C134.056 266.626 133.143 267.344 132.441 268.248C131.739 269.152 131.269 270.214 131.073 271.342C130.269 275.913 133.682 281.43 136.169 284.029C136.537 284.409 137.04 284.628 137.569 284.638C138.098 284.647 138.609 284.446 138.989 284.079C139.37 283.711 139.589 283.208 139.598 282.679C139.608 282.15 139.406 281.639 139.039 281.259C137.1 279.242 134.474 274.91 134.984 272.012C135.074 271.501 135.294 271.021 135.622 270.617C135.949 270.214 136.374 269.901 136.856 269.708C140.673 267.813 151.687 277.419 154.031 281.951L154.319 282.505C155.82 285.364 158.939 291.314 157.549 295.109C157.028 296.522 155.887 297.563 154.086 298.294C148.546 300.549 134.469 290.023 130.602 283.281L130.153 282.505C127.383 277.713 122.242 268.794 124.02 262.766C124.629 260.711 126.009 259.154 128.247 258.013C135.289 254.4 148.114 256.389 161.105 273.852C168.113 283.27 170.64 293.242 167.864 300.444C167.078 302.559 165.753 304.432 164.021 305.878C162.288 307.324 160.208 308.293 157.986 308.688C147.66 310.771 127.671 299.441 119.843 276.949C119.663 276.459 119.298 276.059 118.827 275.836C118.355 275.613 117.815 275.584 117.322 275.755C116.829 275.927 116.423 276.285 116.192 276.753C115.961 277.221 115.923 277.76 116.087 278.256C124.74 303.114 146.779 315.003 158.773 312.604C159.632 312.444 160.479 312.227 161.31 311.956Z" fill="white"/>
<path d="M234.783 200.767C225.802 190.241 214.44 184.147 205.105 183.803L195.742 192.296C196.2 192.15 196.629 191.921 197.005 191.62C204.262 186.191 221.054 193.454 230.711 204.756C241.591 217.498 245.414 232.395 238.356 241.675L246.722 233.952C248.422 224.589 244.168 211.764 234.783 200.767Z" fill="#90A3AF"/>
<path d="M236.445 199.105C223.293 183.714 205.032 177.709 195.52 185.587L194.058 187.111L192.778 189.77L193.21 191.011C195.736 188.917 195.853 192.063 198.667 189.958C205.924 184.529 222.716 191.792 232.373 203.088C243.564 216.185 247.292 231.581 239.398 240.761C238.672 241.608 240.76 243.237 240.057 244.085C240.057 244.085 240.65 244.173 240.799 244.085C242.261 242.847 243.642 241.517 244.932 240.101C252.284 231.237 248.816 213.603 236.445 199.105Z" fill="#AA160B"/>
<path d="M254.145 183.327C240.999 167.931 222.716 161.925 213.226 169.809L213.16 169.731L195.853 185.338C205.503 178.136 223.453 184.141 236.356 199.243C248.727 213.725 252.195 231.376 244.843 240.212L262.633 224.296C269.984 215.454 266.522 197.803 254.145 183.327Z" fill="#D11F11"/>
<g style="mix-blend-mode:multiply" opacity="0.5">
<path d="M254.145 183.327L253.89 183.033C250.079 183.15 245.785 183.366 245.58 183.742C245.281 184.246 236.716 190.944 232.123 194.762C233.618 196.181 235.038 197.677 236.378 199.243C243.824 207.952 248.012 217.814 248.616 226.213L266.372 209.803C265.641 201.515 261.447 191.87 254.145 183.327Z" fill="#B71D0D"/>
</g>
<path d="M276.156 187.199L275.541 190.95L233.564 192.828L232.295 189.149L276.156 187.199Z" fill="#E08B0E"/>
<path d="M266.937 174.684L276.156 187.199L232.295 189.149L244.19 175.294L266.937 174.684Z" fill="#FFD140"/>
<path d="M234.411 212.108L235.68 215.792L213.077 202.961L211.808 199.277L234.411 212.108Z" fill="#E08B0E"/>
<path d="M260.732 205.16L262.007 208.845L235.68 215.792L234.411 212.108L260.732 205.16Z" fill="#E08B0E"/>
<path d="M231.935 189.565L260.732 205.16L234.411 212.107L211.808 199.277L231.935 189.565Z" fill="#FFD140"/>
<path d="M239.054 207.52L240.317 204.385L245.004 203.842L245.276 200.822L250.029 199.648L249.94 199.315L231.935 189.565L211.808 199.277L231.182 210.274L232.461 210.523L234.633 207.404L239.054 207.52Z" fill="#E58E0E"/>
<path d="M240.179 158.867L242.716 166.236L243.42 169.011L240.877 161.649L240.179 158.867Z" fill="#BF2105"/>
<path d="M193.337 179.826L195.88 187.194L194.196 184.789L191.653 177.427L193.337 179.826Z" fill="#B71D0D"/>
<path d="M245.625 160.458L248.167 167.826L247.868 170.845L245.331 163.482L245.625 160.458Z" fill="#B71D0D"/>
<path d="M191.648 184.014L194.185 191.377L191.62 189.454L189.077 182.086L191.648 184.014Z" fill="#B71D0D"/>
<path d="M250.018 162.923L252.561 170.291L251.292 173.427L248.749 166.059L250.018 162.923Z" fill="#B71D0D"/>
<path d="M191.271 188.047L193.808 195.415L190.468 194.041L187.925 186.679L191.271 188.047Z" fill="#B71D0D"/>
<path d="M253.181 166.164L255.719 173.527L253.519 176.64L250.976 169.272L253.181 166.164Z" fill="#B71D0D"/>
<path d="M192.213 191.748L194.756 199.116L190.783 198.368L188.241 191L192.213 191.748Z" fill="#B71D0D"/>
<path d="M254.954 170.025L257.497 177.393L254.461 180.341L251.924 172.978L254.954 170.025Z" fill="#B71D0D"/>
<path d="M194.445 194.961L196.988 202.324L192.556 202.23L190.019 194.861L194.445 194.961Z" fill="#B71D0D"/>
<path d="M255.264 174.346L257.807 181.715L254.084 184.379L251.547 177.011L255.264 174.346Z" fill="#B71D0D"/>
<path d="M197.864 197.543L200.401 204.911L195.714 205.465L193.171 198.097L197.864 197.543Z" fill="#B71D0D"/>
<path d="M254.112 178.939L256.655 186.307L252.4 188.557L249.857 181.194L254.112 178.939Z" fill="#B71D0D"/>
<path d="M202.318 199.376L204.861 206.745L200.113 207.925L197.576 200.562L202.318 199.376Z" fill="#B71D0D"/>
<path d="M251.541 183.593L254.084 190.961L249.475 192.712L246.932 185.349L251.541 183.593Z" fill="#D31C04"/>
<path d="M207.614 200.39L210.157 207.759L205.553 209.52L203.016 202.158L207.614 200.39Z" fill="#D31C04"/>
<path d="M246.932 185.349L249.475 192.712L250.201 195.482L247.658 188.119L246.932 185.349Z" fill="#B71D0D"/>
<path d="M247.658 188.119L250.201 195.482L245.447 196.656L242.904 189.288L247.658 188.119Z" fill="#D31C04"/>
<path d="M213.52 200.529L216.063 207.897L211.819 210.163L209.282 202.795L213.52 200.529Z" fill="#D31C04"/>
<path d="M209.282 202.795L211.819 210.163L210.157 207.759L207.614 200.39L209.282 202.795Z" fill="#B71D0D"/>
<path d="M242.633 192.313L245.17 199.675L240.483 200.218L237.946 192.85L242.633 192.313Z" fill="#B71D0D"/>
<path d="M242.904 189.288L245.447 196.656L245.17 199.676L242.633 192.313L242.904 189.288Z" fill="#D31C04"/>
<path d="M219.786 199.797L222.323 207.16L218.611 209.836L216.074 202.468L219.786 199.797Z" fill="#D31C04"/>
<path d="M216.074 202.468L218.611 209.836L216.063 207.897L213.52 200.529L216.074 202.468Z" fill="#B71D0D"/>
<path d="M236.688 195.986L239.226 203.354L234.805 203.243L232.262 195.875L236.688 195.986Z" fill="#B71D0D"/>
<path d="M237.946 192.85L240.483 200.218L239.226 203.354L236.688 195.986L237.946 192.85Z" fill="#D31C04"/>
<path d="M226.118 198.224L228.661 205.592L225.658 208.545L223.115 201.183L226.118 198.224Z" fill="#D31C04"/>
<path d="M223.115 201.182L225.658 208.545L222.323 207.16L219.786 199.797L223.115 201.182Z" fill="#B71D0D"/>
<path d="M230.09 198.989L232.628 206.357L228.661 205.592L226.118 198.224L230.09 198.989Z" fill="#B71D0D"/>
<path d="M246.932 185.338L247.658 188.108L242.904 189.282L242.633 192.302L237.946 192.856L236.688 195.991L232.256 195.875L230.085 198.989L226.112 198.224L223.11 201.182L219.786 199.797L216.074 202.473L213.52 200.534L209.282 202.795L207.62 200.39L203.021 202.157L202.323 199.387L197.581 200.567L197.869 197.548L193.177 198.102L194.451 194.966L190.019 194.872L192.235 191.759L188.268 191.005L191.293 188.052L187.969 186.684L191.692 184.019L189.121 182.091L193.382 179.831L191.72 177.432L196.329 175.676L195.603 172.906L200.357 171.737L200.628 168.718L205.315 168.164L206.573 165.028L211.005 165.139L213.187 162.025L217.149 162.79L220.162 159.831L223.486 161.211L227.198 158.546L229.747 160.48L234.002 158.214L235.664 160.624L240.262 158.856L240.96 161.626L245.708 160.441L245.414 163.46L250.101 162.906L248.755 166.053L253.187 166.153L250.971 169.261L254.949 170.014L251.918 172.967L255.242 174.335L251.525 177L254.09 178.928L249.863 181.183L251.525 183.582L246.932 185.338Z" fill="#FF3912"/>
<path d="M232.262 195.875L234.805 203.243L232.628 206.357L230.09 198.989L232.262 195.875Z" fill="#D31C04"/>
<path d="M83.5609 142.596C83.5609 144.448 83.0118 146.258 81.983 147.798C80.9542 149.338 79.4919 150.538 77.7811 151.246C76.0703 151.955 74.1878 152.14 72.3716 151.779C70.5554 151.418 68.8871 150.526 67.5777 149.217C66.2683 147.907 65.3766 146.239 65.0154 144.423C64.6541 142.607 64.8395 140.724 65.5482 139.013C66.2568 137.303 67.4568 135.84 68.9965 134.812C70.5362 133.783 72.3464 133.234 74.1982 133.234C75.4277 133.234 76.6452 133.476 77.7811 133.946C78.9171 134.417 79.9492 135.107 80.8186 135.976C81.688 136.845 82.3777 137.877 82.8482 139.013C83.3187 140.149 83.5609 141.367 83.5609 142.596Z" fill="#FABB12"/>
<path d="M77.5222 133.843C79.0071 135.378 79.9221 137.374 80.115 139.501C80.3079 141.628 79.7671 143.756 78.5826 145.533C77.3981 147.31 75.6411 148.628 73.6038 149.268C71.5665 149.908 69.3716 149.831 67.3839 149.051C67.6838 149.363 68.006 149.654 68.3479 149.92C69.9379 151.167 71.9378 153.765 74.1151 153.765C79.4779 153.765 77.5333 151.422 78.946 150.574C80.4432 149.672 81.6578 148.369 82.4523 146.812C83.2468 145.255 83.5893 143.507 83.4411 141.765C83.2929 140.024 82.6599 138.359 81.6138 136.958C80.5677 135.558 79.1503 134.479 77.5222 133.843Z" fill="#D8810E"/>
<path d="M234.871 166.518C245.985 168.634 249.037 177.277 241.708 185.809C234.378 194.34 219.426 199.559 208.312 197.443C197.199 195.326 194.146 186.684 201.476 178.141C208.805 169.598 223.764 164.396 234.871 166.518Z" fill="#D31C04"/>
<path d="M233.121 168.552C223.475 166.712 210.495 171.227 204.135 178.64C197.775 186.053 200.429 193.559 210.074 195.399C219.719 197.238 232.694 192.728 239.065 185.31C245.436 177.892 242.76 170.396 233.121 168.552Z" fill="#FCCC0C"/>
<path opacity="0.6" d="M157.172 152.408V141.909L315.751 72.1099V82.6083L157.172 152.408Z" fill="#5CC8D3"/>
<defs>
<linearGradient id="paint0_linear_41_139" x1="71.5999" y1="157.405" x2="77.0347" y2="157.405" gradientUnits="userSpaceOnUse">
<stop stop-color="#FFF200"/>
<stop offset="1" stop-color="#F7941E"/>
</linearGradient>
<linearGradient id="paint1_linear_41_139" x1="28.1026" y1="180.097" x2="109.118" y2="189.135" gradientUnits="userSpaceOnUse">
<stop stop-color="#FFF200"/>
<stop offset="0.46" stop-color="#FBC010"/>
<stop offset="0.81" stop-color="#F8A01A"/>
<stop offset="1" stop-color="#F7941E"/>
</linearGradient>
<radialGradient id="paint2_radial_41_139" cx="0" cy="0" r="1" gradientUnits="userSpaceOnUse" gradientTransform="translate(162.042 325.014) scale(95.6161)">
<stop stop-color="#231F20"/>
<stop offset="0.22" stop-color="#534F50"/>
<stop offset="1" stop-color="white"/>
</radialGradient>
</defs>
</svg>
