<svg width="204" height="55" viewBox="0 0 204 55" fill="none" xmlns="http://www.w3.org/2000/svg">
<path fill-rule="evenodd" clip-rule="evenodd" d="M9.85413 34.3576L9.85413 34.5665H27.4194C27.5263 34.6003 27.6288 34.6383 27.7268 34.6804C28.2279 34.8956 28.6094 35.211 28.8712 35.6266C29.1255 36.0347 29.2526 36.5357 29.2526 37.1293C29.2526 37.6933 29.1404 38.1831 28.916 38.5987C28.6842 39.0069 28.3551 39.3297 27.9287 39.5672C27.4949 39.7972 26.9751 39.9197 26.3692 39.9345V44.7323C27.8951 44.7397 29.1629 44.4169 30.1726 43.7638C31.1749 43.1108 31.9229 42.2276 32.4165 41.1145C32.9027 39.9939 33.1458 38.7471 33.1458 37.3742C33.1458 36.356 33.0172 35.42 32.7601 34.5665H32.8316L32.7425 34.5088C32.6128 34.0896 32.4517 33.6903 32.2595 33.3112C31.6686 32.1461 30.8271 31.237 29.7351 30.5839C28.643 29.9234 27.3565 29.5932 25.8756 29.5932H18.0945L32.7194 23.8021V20.6185L17.8761 14.7187L17.8761 14.5295L32.8316 14.5295V9.85417L9.85413 9.85417V15.7985L25.2921 22.0767V22.3439L9.85413 28.6221L9.85413 29.5932V34.3576Z" fill="#F2ECFF"/>
<rect x="2.5" y="2.5" width="38" height="49.6458" stroke="#F2ECFF" stroke-width="5"/>
<path d="M59.0099 19.4545H62.4759V29.5114C62.4711 30.4536 62.2462 31.2775 61.8011 31.983C61.3561 32.6837 60.7405 33.2282 59.9545 33.6165C59.1733 34.0047 58.2689 34.1989 57.2415 34.1989C56.3324 34.1989 55.5062 34.0402 54.7628 33.723C54.0241 33.4058 53.4347 32.9134 52.9943 32.2457C52.5587 31.5781 52.3433 30.7235 52.348 29.6818H55.8494C55.8636 30.0559 55.9347 30.3755 56.0625 30.6406C56.1951 30.901 56.3774 31.0975 56.6094 31.2301C56.8414 31.3627 57.1184 31.429 57.4403 31.429C57.7765 31.429 58.0606 31.358 58.2926 31.2159C58.5246 31.0691 58.6998 30.8537 58.8182 30.5696C58.9413 30.2855 59.0052 29.9328 59.0099 29.5114V19.4545ZM78.4116 26.7273C78.4116 28.3277 78.1038 29.6842 77.4883 30.7969C76.8728 31.9096 76.0394 32.7547 74.9883 33.3324C73.9419 33.91 72.7676 34.1989 71.4656 34.1989C70.1587 34.1989 68.9821 33.9077 67.9357 33.3253C66.8893 32.7429 66.0584 31.8977 65.4428 30.7898C64.832 29.6771 64.5266 28.3229 64.5266 26.7273C64.5266 25.1269 64.832 23.7704 65.4428 22.6577C66.0584 21.545 66.8893 20.6998 67.9357 20.1222C68.9821 19.5445 70.1587 19.2557 71.4656 19.2557C72.7676 19.2557 73.9419 19.5445 74.9883 20.1222C76.0394 20.6998 76.8728 21.545 77.4883 22.6577C78.1038 23.7704 78.4116 25.1269 78.4116 26.7273ZM74.8178 26.7273C74.8178 25.7803 74.6829 24.9801 74.413 24.3267C74.1478 23.6733 73.7643 23.1785 73.2624 22.8423C72.7653 22.5062 72.1663 22.3381 71.4656 22.3381C70.7695 22.3381 70.1706 22.5062 69.6687 22.8423C69.1668 23.1785 68.7809 23.6733 68.511 24.3267C68.2459 24.9801 68.1133 25.7803 68.1133 26.7273C68.1133 27.6742 68.2459 28.4744 68.511 29.1278C68.7809 29.7812 69.1668 30.276 69.6687 30.6122C70.1706 30.9484 70.7695 31.1165 71.4656 31.1165C72.1663 31.1165 72.7653 30.9484 73.2624 30.6122C73.7643 30.276 74.1478 29.7812 74.413 29.1278C74.6829 28.4744 74.8178 27.6742 74.8178 26.7273ZM80.4641 34V19.4545H83.9798V25.2926H89.7113V19.4545H93.2198V34H89.7113V28.1548H83.9798V34H80.4641ZM98.5714 34H94.793L99.7006 19.4545H104.381L109.289 34H105.51L102.094 23.1193H101.98L98.5714 34ZM98.0671 28.2756H105.965V30.946H98.0671V28.2756ZM123.234 19.4545V34H120.251L114.463 25.6051H114.37V34H110.855V19.4545H113.88L119.605 27.8352H119.725V19.4545H123.234ZM137.824 19.4545V34H134.841L129.053 25.6051H128.96V34H125.445V19.4545H128.47L134.195 27.8352H134.315V19.4545H137.824ZM144.331 19.4545H148.685L152.378 28.4602H152.549L156.242 19.4545H160.596V34H157.172V25.0653H157.051L153.557 33.9077H151.37L147.875 25.0156H147.755V34H144.331V19.4545ZM162.788 34V19.4545H172.93V22.3097H166.304V25.2926H172.412V28.1548H166.304V31.1449H172.93V34H162.788ZM175.082 34V31.9972L182.149 22.3097H175.089V19.4545H186.595V21.4574L179.528 31.1449H186.588V34H175.082ZM191.892 34H188.113L193.021 19.4545H197.701L202.609 34H198.831L195.414 23.1193H195.301L191.892 34ZM191.387 28.2756H199.285V30.946H191.387V28.2756Z" fill="#F2ECFF"/>
</svg>
